<?xml version="1.0" standalone="no"?><!DOCTYPE svg PUBLIC "-//W3C//DTD SVG 1.1//EN" "http://www.w3.org/Graphics/SVG/1.1/DTD/svg11.dtd"><svg t="1569058215976" class="icon" viewBox="0 0 1024 1024" version="1.1" xmlns="http://www.w3.org/2000/svg" p-id="2130" xmlns:xlink="http://www.w3.org/1999/xlink" width="45" height="45"><defs><style type="text/css"></style></defs><path d="M701.620174 701.668781c-65.011666 65.011666-151.432944 100.812033-243.339144 100.812033-91.889827 0-178.327478-35.799344-243.339144-100.812033-134.181025-134.149303-134.181025-352.48089 0-486.661915 65.011666-64.979944 151.449317-100.779288 243.339144-100.779288 91.9062 0 178.327478 35.799344 243.339144 100.779288C835.816548 349.187891 835.816548 567.519478 701.620174 701.668781L701.620174 701.668781zM671.256632 245.385756c-56.889685-56.873312-132.534526-88.180342-212.975603-88.180342-80.425727 0-156.085918 31.30703-212.95923 88.180342-117.376291 117.440759-117.376291 308.495096 0 425.88776 56.873312 56.905034 132.534526 88.228437 212.95923 88.228437 80.441077 0 156.085918-31.322379 212.975603-88.228437C788.61655 553.880853 788.61655 362.826516 671.256632 245.385756L671.256632 245.385756zM903.402853 903.45146c-4.189416 4.252861-9.705036 6.347568-15.173584 6.347568-5.531993 0-11.000542-2.094708-15.22168-6.347568L765.608533 796.052404c-8.394181-8.425903-8.394181-22.032806 0-30.426987 8.362458-8.394181 21.969361-8.394181 30.363542 0L903.402853 873.087918C911.828756 881.514845 911.828756 895.105375 903.402853 903.45146L903.402853 903.45146z" p-id="2131" fill="#ffffff"></path></svg>